# xmcd
#
# Track frame offsets: 
#        150
#        14965
#        27883
#        43413
#        55333
#        66015
#        92168
#        107260
#        122473
#        134748
#        147000
#        162878
#        181270
#        194055
#        210048
#        221588
#        232143
#        240043
#        253060
#        268545
#        276733
#        289358
#        300280
#        308858
#
# Disc length: 4310 seconds
#
# Revision: 5
# Processed by: cddbd v1.5PL3 Copyright (c) Steve Scherf et al.
# Submitted via: ExactAudioCopy v0.90b4
#
DISCID=6810d418
DTITLE=Boxcar Willie - Two Sides Of Boxcar
DYEAR=1900
DGENRE=Country
TTITLE0=Freightline Fever
TTITLE1=Truck Drivin' Man
TTITLE2=Phantom 309
TTITLE3=Truck Drivin' Son Of A Gun
TTITLE4=Six Days On The Road
TTITLE5=Teddy Bear
TTITLE6=Whiteline Fever
TTITLE7=Girl On The Billboard
TTITLE8=How Fast Them Truck Will Go
TTITLE9=Truckers' Prayer
TTITLE10=Forty Acres
TTITLE11=Convoy
TTITLE12=Spirit Of America
TTITLE13=Old Kentucky Home
TTITLE14=Dixie
TTITLE15=Thank You Old Flag Of Mine
TTITLE16=America
TTITLE17=North To Alaska
TTITLE18=Play The Star Spangled Banner Over Me
TTITLE19=Battle Hymm Of The Republic
TTITLE20=Star Spangled Banner Waving Somewhere
TTITLE21=Yankee Doodle
TTITLE22=America The Beautiful
TTITLE23=Battle Of New Orleans
EXTD=ID3G:   2
EXTT0=
EXTT1=
EXTT2=
EXTT3=
EXTT4=
EXTT5=
EXTT6=
EXTT7=
EXTT8=
EXTT9=
EXTT10=
EXTT11=
EXTT12=
EXTT13=
EXTT14=
EXTT15=
EXTT16=
EXTT17=
EXTT18=
EXTT19=
EXTT20=
EXTT21=
EXTT22=
EXTT23=
PLAYORDER=
